<mxfile host="app.diagrams.net" modified="2022-10-04T12:21:20.857Z" agent="5.0 (Windows)" etag="rvtFMLFCGNH9JO9_dBYD" version="20.4.0" type="github">
  <diagram id="8JSG3-eyopscur5SFvDw" name="Page-1">
    <mxGraphModel dx="1344" dy="778" grid="1" gridSize="10" guides="1" tooltips="1" connect="1" arrows="1" fold="1" page="1" pageScale="1" pageWidth="850" pageHeight="1100" math="0" shadow="0">
      <root>
        <mxCell id="0" />
        <mxCell id="1" parent="0" />
        <mxCell id="6U2PP8YWn2bOFWFZwvaj-1" value="" style="rounded=1;whiteSpace=wrap;html=1;" vertex="1" parent="1">
          <mxGeometry x="130" y="110" width="250" height="280" as="geometry" />
        </mxCell>
        <mxCell id="6U2PP8YWn2bOFWFZwvaj-2" value="" style="rounded=0;whiteSpace=wrap;html=1;fillColor=#eeeeee;strokeColor=#36393d;" vertex="1" parent="1">
          <mxGeometry x="155" y="140" width="195" height="50" as="geometry" />
        </mxCell>
        <mxCell id="6U2PP8YWn2bOFWFZwvaj-3" value="" style="rounded=0;whiteSpace=wrap;html=1;fillColor=#eeeeee;strokeColor=#36393d;" vertex="1" parent="1">
          <mxGeometry x="155" y="210" width="85" height="150" as="geometry" />
        </mxCell>
        <mxCell id="6U2PP8YWn2bOFWFZwvaj-4" value="" style="rounded=0;whiteSpace=wrap;html=1;fillColor=#FAC2AD;strokeColor=#b46504;" vertex="1" parent="1">
          <mxGeometry x="265" y="210" width="85" height="50" as="geometry" />
        </mxCell>
        <mxCell id="6U2PP8YWn2bOFWFZwvaj-5" value="" style="rounded=0;whiteSpace=wrap;html=1;fillColor=#eeeeee;strokeColor=#36393d;" vertex="1" parent="1">
          <mxGeometry x="265" y="270" width="85" height="90" as="geometry" />
        </mxCell>
        <mxCell id="6U2PP8YWn2bOFWFZwvaj-6" value="&lt;div style=&quot;font-size: 26px;&quot;&gt;&lt;b&gt;Version A&lt;/b&gt;&lt;/div&gt;&lt;div style=&quot;font-size: 26px;&quot;&gt;&lt;font style=&quot;font-size: 21px;&quot;&gt;(original)&lt;/font&gt;&lt;br style=&quot;font-size: 26px;&quot;&gt;&lt;/div&gt;" style="text;html=1;resizable=0;autosize=1;align=center;verticalAlign=middle;points=[];fillColor=none;strokeColor=none;rounded=0;fontFamily=Work Sans;fontSize=26;fontColor=#6956CC;" vertex="1" parent="1">
          <mxGeometry x="182.5" y="34" width="140" height="80" as="geometry" />
        </mxCell>
        <mxCell id="6U2PP8YWn2bOFWFZwvaj-7" value="" style="rounded=1;whiteSpace=wrap;html=1;" vertex="1" parent="1">
          <mxGeometry x="440" y="110" width="250" height="280" as="geometry" />
        </mxCell>
        <mxCell id="6U2PP8YWn2bOFWFZwvaj-8" value="" style="rounded=0;whiteSpace=wrap;html=1;fillColor=#eeeeee;strokeColor=#36393d;" vertex="1" parent="1">
          <mxGeometry x="465" y="140" width="195" height="50" as="geometry" />
        </mxCell>
        <mxCell id="6U2PP8YWn2bOFWFZwvaj-9" value="" style="rounded=0;whiteSpace=wrap;html=1;fillColor=#eeeeee;strokeColor=#36393d;" vertex="1" parent="1">
          <mxGeometry x="465" y="210" width="85" height="150" as="geometry" />
        </mxCell>
        <mxCell id="6U2PP8YWn2bOFWFZwvaj-10" value="" style="rounded=0;whiteSpace=wrap;html=1;fillColor=#B0EADC;strokeColor=#0e8088;" vertex="1" parent="1">
          <mxGeometry x="575" y="210" width="85" height="50" as="geometry" />
        </mxCell>
        <mxCell id="6U2PP8YWn2bOFWFZwvaj-11" value="" style="rounded=0;whiteSpace=wrap;html=1;fillColor=#eeeeee;strokeColor=#36393d;" vertex="1" parent="1">
          <mxGeometry x="575" y="270" width="85" height="90" as="geometry" />
        </mxCell>
        <mxCell id="6U2PP8YWn2bOFWFZwvaj-12" value="&lt;div style=&quot;font-size: 26px;&quot;&gt;&lt;b&gt;Version B&lt;/b&gt;&lt;/div&gt;" style="text;html=1;resizable=0;autosize=1;align=center;verticalAlign=middle;points=[];fillColor=none;strokeColor=none;rounded=0;fontFamily=Work Sans;fontSize=26;fontColor=#6956CC;" vertex="1" parent="1">
          <mxGeometry x="492.5" y="54" width="140" height="40" as="geometry" />
        </mxCell>
      </root>
    </mxGraphModel>
  </diagram>
</mxfile>
